<?xml version="1.0" encoding="UTF-8" standalone="no"?>
<!-- Created with Inkscape (http://www.inkscape.org/) -->

<svg
   xmlns:dc="http://purl.org/dc/elements/1.1/"
   xmlns:cc="http://creativecommons.org/ns#"
   xmlns:rdf="http://www.w3.org/1999/02/22-rdf-syntax-ns#"
   xmlns:svg="http://www.w3.org/2000/svg"
   xmlns="http://www.w3.org/2000/svg"
   xmlns:sodipodi="http://sodipodi.sourceforge.net/DTD/sodipodi-0.dtd"
   xmlns:inkscape="http://www.inkscape.org/namespaces/inkscape"
   id="svg2"
   version="1.1"
   inkscape:version="0.48.2 r9819"
   width="600"
   height="250"
   xml:space="preserve"
   sodipodi:docname="kreuzknoten.pdf"><metadata
     id="metadata8"><rdf:RDF><cc:Work
         rdf:about=""><dc:format>image/svg+xml</dc:format><dc:type
           rdf:resource="http://purl.org/dc/dcmitype/StillImage" /><dc:title></dc:title></cc:Work></rdf:RDF></metadata><defs
     id="defs6" /><sodipodi:namedview
     pagecolor="#ffffff"
     bordercolor="#666666"
     borderopacity="1"
     objecttolerance="10"
     gridtolerance="10"
     guidetolerance="10"
     inkscape:pageopacity="0"
     inkscape:pageshadow="2"
     inkscape:window-width="1280"
     inkscape:window-height="750"
     id="namedview4"
     showgrid="false"
     inkscape:zoom="1.5183333"
     inkscape:cx="300"
     inkscape:cy="125"
     inkscape:window-x="-8"
     inkscape:window-y="-8"
     inkscape:window-maximized="1"
     inkscape:current-layer="g10" /><g
     id="g10"
     inkscape:groupmode="layer"
     inkscape:label="kreuzknoten"
     transform="matrix(1.25,0,0,-1.25,0,250)"><g
       id="g12"
       transform="matrix(0.60905265,0,0,0.60905265,-3.6211163,-21.810307)"><path
         d="m 494.301,304.855 c 11.234,2.36 24.691,-0.968 40.504,-9.984 16.785,-9.711 29.406,-22.336 37.59,-37.871 l 4.023,-7.629 11.652,-0.691 11.375,2.773 c 10.403,2.774 20.809,1.942 31.211,-2.637 15.121,3.051 32.875,4.438 52.989,4.161 19.835,0 34.125,-0.969 43,-2.911 2.773,2.219 6.66,2.497 11.515,0.832 4.02,-1.664 7.629,-4.164 10.68,-7.351 3.051,-6.383 3.191,-13.457 0.414,-21.363 l -9.43,-19.418 c -4.301,-5.828 -10.129,-7.77 -17.758,-5.828 l -9.429,3.468 -9.297,2.36 c -29.543,-5.133 -51.738,-4.996 -66.719,0.277 -6.242,-2.359 -14.566,-3.332 -24.969,-3.191 l -25.8,-1.664 -0.555,-11.239 22.609,-1.801 c 11.098,2.219 25.801,3.051 43.973,2.356 17.34,-0.691 32.457,-2.496 45.219,-5.133 l 24.968,3.332 c 12.071,0.692 21.641,-0.973 28.715,-4.719 1.942,-5.546 4.024,-14.148 6.106,-25.66 1.801,-10.125 3.187,-16.09 4.16,-17.894 0.832,-1.25 -1.387,-2.219 -6.797,-2.637 l -20.531,1.109 -21.778,-1.386 c -7.351,0.695 -12.484,1.941 -15.398,4.023 l -26.492,-0.969 -13.735,2.633 c -7.351,-2.078 -17.753,-3.051 -31.488,-3.051 -13.176,0 -23.023,0.832 -29.82,2.637 l -9.156,-0.973 -9.157,0.278 -0.691,0.14 C 561.301,109.688 547.148,94.289 533.418,93.043 517.465,77.922 492.914,73.066 459.762,78.199 c -11.793,-2.082 -22.196,-0.832 -31.211,3.746 -3.469,3.328 -8.461,6.102 -14.703,8.321 -5.551,1.804 -10.266,5.132 -14.289,9.851 l -12.067,6.934 C 377.227,99.84 366.684,95.816 356.004,94.844 343.52,81.527 329.648,76.672 314.527,80.141 c -9.015,-6.52 -21.082,-7.352 -36.48,-2.637 -7.215,-0.969 -14.289,0 -21.086,2.914 -1.246,0.141 -6.52,2.914 -15.813,8.184 -14.566,4.023 -25.105,9.156 -31.765,15.675 -6.242,6.243 -12.207,16.922 -17.617,31.903 l -1.11,7.633 -7.629,-0.278 c -28.437,-5.133 -73.238,-5.828 -134.691,-2.359 -2.773,3.328 -5.27,9.433 -7.352,18.172 -3.191,11.929 -2.91,21.777 0.832,29.683 l 27.606,1.664 29.683,-1.109 c 8.184,2.082 15.258,2.773 21.086,2.082 l 16.786,-3.191 c 3.882,1.25 8.597,2.082 14.007,2.359 l 13.871,1.387 c 5.688,3.328 11.653,5.132 17.895,5.547 -10.402,2.914 -18.863,5.55 -25.383,7.769 -9.574,-4.578 -32.043,-4.719 -67.695,-0.418 -1.801,1.109 -4.715,1.664 -8.738,1.805 l -10.957,0.832 c -9.016,0.969 -13.735,5.269 -14.426,12.898 -3.469,5.551 -3.469,11.653 -0.278,18.313 l 9.293,15.812 c 3.606,4.856 8.461,5.965 14.426,3.469 9.016,-3.469 13.871,-5.273 14.844,-5.273 9.016,3.468 19.418,4.164 31.348,1.804 l 24.968,-5.133 c 5.688,1.665 12.762,1.665 21.364,0 9.984,-2.082 16.226,-3.05 18.726,-2.914 l 1.664,0 2.633,9.989 c 15.121,37.593 36.207,56.593 63.254,57.011 10.543,7.075 24.137,10.957 40.922,11.653 16.785,0.691 30.238,-2.082 40.367,-8.324 9.984,0.14 18.723,-2.356 26.356,-7.766 l 15.257,-11.652 14.84,-3.329 c 7.074,-1.945 12.348,-2.777 15.817,-2.636 7.351,8.597 19.972,12.484 38.003,11.652 l 15.954,5.41 c 9.156,1.942 18.867,0.692 28.992,-3.887 z m -87.668,-72.683 -10.82,7.906 c -2.079,1.527 -4.161,2.637 -6.243,3.192 l -5.547,1.386 c -2.636,-1.527 -4.992,-3.886 -7.074,-6.937 l -5.547,-7.352 c -5.132,-5.687 -13.734,-9.156 -26.078,-10.543 -8.187,-7.074 -14.566,-11.375 -18.867,-12.621 l -14.289,-1.805 c -8.738,-4.437 -32.316,-6.378 -70.742,-5.824 -3.469,-0.277 -6.102,-1.25 -7.629,-2.914 -1.527,-1.805 -1.664,-2.637 -0.418,-2.637 1.805,0 3.609,-0.691 5.41,-2.078 2.082,-1.386 4.024,-2.218 5.551,-2.359 10.82,3.191 22.75,3.191 35.789,0 6.379,1.664 13.73,1.805 22.055,0.555 7.211,-0.973 12.621,-2.36 16.089,-4.438 16.231,-0.418 27.883,-2.496 34.957,-6.383 12.622,-3.468 24.133,-5.269 34.817,-5.269 3.746,0 9.57,1.523 17.199,4.437 8.879,3.469 16.922,5.688 23.996,6.383 l 12.903,4.715 c 7.21,2.082 16.507,2.496 27.742,1.25 9.293,2.355 18.586,2.633 28.019,0.832 l 14.289,-3.191 15.672,-0.696 c -0.832,0.832 -1.246,2.223 -1.387,4.301 l -0.691,7.77 -8.324,-0.278 c -6.242,-0.418 -12.762,0.414 -19.559,2.356 -9.293,-2.774 -17.062,-3.883 -23.304,-3.188 -4.852,0.555 -11.649,2.774 -20.25,6.656 -12.348,0 -23.305,6.52 -33.016,19.422 -4.715,1.387 -9.57,3.883 -14.703,7.352 z m 75.879,25.523 -20.395,-0.554 -7.074,-0.418 c 4.023,-2.637 7.91,-4.715 11.375,-6.102 l 26.496,-2.219 c 6.242,-0.14 14.008,-0.14 23.441,0 l -8.878,0 c -5.965,0 -11.235,1.524 -15.536,4.575 -4.714,2.914 -7.906,4.578 -9.429,4.718 z m 13.039,-125.953 5.406,6.797 c 1.391,1.941 2.914,3.469 4.719,4.438 -8.184,-0.832 -15.953,-0.278 -23.028,1.668 -8.324,-5.829 -20.808,-8.743 -37.589,-8.743 5.687,-3.328 10.402,-6.933 14.148,-10.816 l 8.32,0.832 10.407,1.109 c 6.242,3.188 12.207,4.715 17.617,4.715 z M 291.918,249.648 c 4.715,4.024 11.375,6.797 20.113,8.602 7.074,0.691 12.067,2.355 14.844,4.715 l 2.355,2.359 1.665,1.11 1.39,0.277 c -9.433,-1.109 -18.172,-0.141 -26.219,3.051 l -11.652,-2.078 c -4.992,-0.696 -8.601,-0.418 -10.82,0.832 -2.078,-0.418 -4.992,-1.668 -8.739,-3.746 -3.746,-1.805 -6.519,-2.915 -8.324,-3.329 -2.078,-0.14 -5.129,-3.191 -9.293,-9.019 -2.773,-4.02 -5.269,-6.52 -7.351,-7.766 l 12.902,0 c 12.762,2.91 22.469,4.578 29.129,4.992 z m 42.309,-116.519 c -1.805,1.25 -4.024,2.359 -6.661,3.328 -4.855,1.805 -8.043,2.5 -9.847,2.359 -11.789,-1.8 -22.887,-0.832 -33.43,2.914 -5.41,-1.25 -12.207,-1.25 -20.668,0 l -14.148,2.083 5.41,-3.61 6.933,-6.656 21.223,-6.383 c 2.637,-0.414 9.852,-0.555 21.777,-0.137 12.207,5.411 22.059,7.489 29.411,6.102"
         style="fill:#333333;fill-opacity:1;fill-rule:evenodd;stroke:none"
         id="path14"
         inkscape:connector-curvature="0" /><path
         d="m 746.48,232.172 c 0.696,-2.359 0.418,-4.719 -0.968,-7.074 l -3.746,-6.243 c -5.965,-0.417 -10.68,2.633 -14.149,8.875 l -3.887,8.465 c -1.523,3.188 -3.187,5.688 -4.714,7.352 5.132,1.801 10.265,1.109 15.121,-2.223 l 12.343,-9.152"
         style="fill:#ffffff;fill-opacity:1;fill-rule:evenodd;stroke:none"
         id="path16"
         inkscape:connector-curvature="0" /><path
         d="m 717.074,205.121 c -0.972,1.527 -0.554,4.578 0.973,9.156 1.523,4.578 1.941,8.325 0.969,11.098 l 18.449,-16.09 c -8.324,-6.797 -15.121,-8.187 -20.391,-4.164"
         style="fill:#ffffff;fill-opacity:1;fill-rule:evenodd;stroke:none"
         id="path18"
         inkscape:connector-curvature="0" /><path
         d="m 657.844,182.371 c 14.844,0.141 28.715,-4.297 41.336,-13.039 7.074,-5.269 16.644,-14.703 28.715,-28.434 -12.903,-3.746 -25.801,-0.14 -38.981,11.098 -3.465,2.91 -8.738,8.184 -15.672,15.672 l -15.398,14.703"
         style="fill:#ffffff;fill-opacity:1;fill-rule:evenodd;stroke:none"
         id="path20"
         inkscape:connector-curvature="0" /><path
         d="m 704.73,224.543 c 1.247,7.211 1.665,13.594 0.969,19.004 2.082,-4.856 2.637,-10.406 1.664,-16.371 -0.968,-6.102 -3.05,-11.235 -6.379,-15.535 1.524,1.941 2.774,6.242 3.746,12.902"
         style="fill:#ffffff;fill-opacity:1;fill-rule:evenodd;stroke:none"
         id="path22"
         inkscape:connector-curvature="0" /><path
         d="m 696.266,243.547 4.718,-11.375 -4.718,-15.676 0,27.051"
         style="fill:#ffffff;fill-opacity:1;fill-rule:evenodd;stroke:none"
         id="path24"
         inkscape:connector-curvature="0" /><path
         d="m 692.105,234.527 -20.531,13.735 c 4.301,0.972 8.742,0.418 13.457,-1.528 5.688,-2.496 8.047,-6.519 7.074,-12.207"
         style="fill:#ffffff;fill-opacity:1;fill-rule:evenodd;stroke:none"
         id="path26"
         inkscape:connector-curvature="0" /><path
         d="m 684.891,209.285 c -7.629,1.11 -15.672,6.102 -24.133,14.981 l -21.223,21.636 c 15.395,4.024 32.18,-3.605 50.211,-22.886 l -4.855,-13.731"
         style="fill:#ffffff;fill-opacity:1;fill-rule:evenodd;stroke:none"
         id="path28"
         inkscape:connector-curvature="0" /><path
         d="m 637.035,169.055 c -6.101,6.242 -11.375,10.683 -15.672,13.316 11.93,3.609 23.996,0.418 36.063,-9.43 l 15.262,-14.425 14.703,-14.981 c -10.961,-4.301 -22.614,-0.836 -34.957,10.403 l -15.399,15.117"
         style="fill:#ffffff;fill-opacity:1;fill-rule:evenodd;stroke:none"
         id="path30"
         inkscape:connector-curvature="0" /><path
         d="m 614.289,231.34 -13.18,14.562 c 13.317,3.469 26.356,0 39.258,-10.261 7.074,-5.828 15.949,-15.953 26.492,-30.52 -12.898,-2.496 -25.523,1.387 -37.867,11.516 -3.887,3.328 -8.738,8.183 -14.703,14.703"
         style="fill:#ffffff;fill-opacity:1;fill-rule:evenodd;stroke:none"
         id="path32"
         inkscape:connector-curvature="0" /><path
         d="m 616.09,153.242 -14.008,14.426 c -5.687,5.828 -10.684,9.988 -14.703,12.348 11.371,3.191 23.023,0.832 34.816,-7.352 5.133,-3.609 14.703,-12.484 28.575,-26.773 -11.653,-5.688 -23.165,-3.192 -34.68,7.351"
         style="fill:#ffffff;fill-opacity:1;fill-rule:evenodd;stroke:none"
         id="path34"
         inkscape:connector-curvature="0" /><path
         d="m 578.359,243.547 c 8.743,1.246 17.481,-2.777 26.219,-11.93 l 11.235,-12.625 c 4.578,-4.992 8.601,-8.875 12.347,-11.512 -5.551,-3.328 -11.515,-3.605 -18.035,-0.695 -2.219,0.695 -7.629,4.024 -16.09,9.711 -6.656,4.715 -11.93,13.734 -15.676,27.051"
         style="fill:#ffffff;fill-opacity:1;fill-rule:evenodd;stroke:none"
         id="path36"
         inkscape:connector-curvature="0" /><path
         d="m 580.719,157.266 c 0.277,3.328 1.25,6.382 2.773,9.156 1.805,3.187 3.887,4.715 6.242,4.578 l 26.911,-27.465 c -5.965,-1.39 -12.344,-0.695 -18.864,1.942 -6.519,2.496 -12.207,6.378 -17.062,11.789"
         style="fill:#ffffff;fill-opacity:1;fill-rule:evenodd;stroke:none"
         id="path38"
         inkscape:connector-curvature="0" /><path
         d="m 587.379,209.285 9.016,-4.164 -9.016,0 0,4.164"
         style="fill:#ffffff;fill-opacity:1;fill-rule:evenodd;stroke:none"
         id="path40"
         inkscape:connector-curvature="0" /><path
         d="m 578.359,145.891 2.36,2.359 4.301,-4.715 c -3.747,0 -5.965,0.832 -6.661,2.356"
         style="fill:#ffffff;fill-opacity:1;fill-rule:evenodd;stroke:none"
         id="path42"
         inkscape:connector-curvature="0" /><path
         d="m 578.359,200.406 c -4.296,-12.07 -11.789,-18.867 -22.746,-20.39 l -25.109,-6.661 c 3.191,5.688 11.652,14.426 25.387,26.079 11.652,9.851 18.308,19.281 20.113,28.296 5.824,-6.656 6.656,-15.812 2.355,-27.324"
         style="fill:#ffffff;fill-opacity:1;fill-rule:evenodd;stroke:none"
         id="path44"
         inkscape:connector-curvature="0" /><path
         d="m 519.27,148.25 c 2.078,6.797 5.824,11.93 11.234,15.398 3.605,2.356 9.293,4.575 16.922,6.379 9.433,2.36 15.398,4.161 17.894,5.27 6.66,2.637 11.793,6.519 15.399,11.375 0.418,-12.484 -5.688,-23.859 -18.449,-34.121 -4.579,-3.192 -11.375,-4.719 -20.391,-4.578 l -22.609,0.277"
         style="fill:#ffffff;fill-opacity:1;fill-rule:evenodd;stroke:none"
         id="path46"
         inkscape:connector-curvature="0" /><path
         d="m 523.984,126.473 c -8.875,1.523 -15.812,4.3 -20.945,8.043 4.301,3.468 9.988,5.687 16.785,6.382 l 19.141,0.555 19.004,0.832 c 6.519,1.25 11.652,4.024 15.676,8.324 -3.469,-14.707 -12.485,-23.859 -27.051,-27.328 l -22.61,3.192"
         style="fill:#ffffff;fill-opacity:1;fill-rule:evenodd;stroke:none"
         id="path48"
         inkscape:connector-curvature="0" /><path
         d="m 552.977,205.539 c -12.485,-10.129 -19.145,-15.535 -20.114,-16.508 -2.218,7.074 -1.941,13.871 0.692,20.532 1.804,4.574 5.273,10.125 10.406,16.367 l 12.344,15.394 c 4.023,6.242 5.965,12.207 5.965,18.172 4.437,-4.019 7.351,-9.293 8.601,-15.812 1.246,-6.243 0.692,-12.344 -1.527,-18.309 -2.637,-6.52 -8.184,-13.18 -16.367,-19.836"
         style="fill:#ffffff;fill-opacity:1;fill-rule:evenodd;stroke:none"
         id="path50"
         inkscape:connector-curvature="0" /><path
         d="m 509.836,105.941 -12.207,8.879 c -4.856,3.883 -9.156,6.657 -12.621,8.461 5.41,2.637 11.512,3.328 18.031,2.36 3.328,-0.696 9.293,-2.637 17.754,-5.551 7.633,-2.774 13.594,-4.301 18.035,-4.438 6.797,-0.554 13.176,1.246 19.141,5.27 -1.942,-6.656 -8.043,-13.453 -18.449,-20.527 -9.985,-2.915 -19.836,-1.11 -29.684,5.546"
         style="fill:#ffffff;fill-opacity:1;fill-rule:evenodd;stroke:none"
         id="path52"
         inkscape:connector-curvature="0" /><path
         d="m 530.504,218.855 c -2.078,4.715 -2.496,10.125 -1.387,16.231 0.418,2.773 2.219,8.461 5.133,16.922 4.855,14.703 4.438,26.355 -1.387,34.953 l 2.36,1.945 c 8.32,-4.441 14.285,-10.543 18.031,-18.449 4.023,-8.879 3.191,-17.062 -2.359,-24.555 l -20.391,-27.047"
         style="fill:#ffffff;fill-opacity:1;fill-rule:evenodd;stroke:none"
         id="path54"
         inkscape:connector-curvature="0" /><path
         d="m 521.629,236.887 c -7.356,5.273 -11.652,15.258 -13.18,29.961 l -2.082,16.925 c -1.387,5.965 -3.883,10.821 -7.629,14.704 4.164,3.468 9.157,3.468 14.981,-0.278 2.914,-1.941 6.937,-5.687 12.07,-11.238 8.184,-14.008 6.797,-30.793 -4.16,-50.074"
         style="fill:#ffffff;fill-opacity:1;fill-rule:evenodd;stroke:none"
         id="path56"
         inkscape:connector-curvature="0" /><path
         d="m 523.984,177.656 -4.714,4.715 6.519,0 c 0.414,-0.832 -0.277,-2.355 -1.805,-4.715"
         style="fill:#ffffff;fill-opacity:1;fill-rule:evenodd;stroke:none"
         id="path58"
         inkscape:connector-curvature="0" /><path
         d="m 476.129,232.172 -4.715,11.375 c 8.184,1.801 17.059,-2.223 26.633,-12.207 l 12.344,-13.039 c 4.855,-4.996 9.433,-8.602 13.593,-10.821 -9.293,-4.714 -18.586,-3.746 -27.879,3.051 -3.886,3.051 -10.542,10.266 -19.976,21.641"
         style="fill:#ffffff;fill-opacity:1;fill-rule:evenodd;stroke:none"
         id="path60"
         inkscape:connector-curvature="0" /><path
         d="m 509.559,85.273 c -6.657,-1.527 -12.621,-1.109 -17.895,1.387 -13.453,8.879 -22.473,20.254 -26.91,34.262 7.215,1.527 16.785,-2.078 28.574,-11.098 13.457,-9.984 23.582,-15.258 30.656,-15.949 -3.468,-4.023 -8.32,-6.937 -14.425,-8.602"
         style="fill:#ffffff;fill-opacity:1;fill-rule:evenodd;stroke:none"
         id="path62"
         inkscape:connector-curvature="0" /><path
         d="m 521.629,218.855 -22.891,22.75 c 4.578,1.801 8.879,0.692 12.903,-3.609 l 9.988,-10.266 0,-8.875"
         style="fill:#ffffff;fill-opacity:1;fill-rule:evenodd;stroke:none"
         id="path64"
         inkscape:connector-curvature="0" /><path
         d="m 514.414,157.266 c -5.41,1.25 -11.512,5.269 -18.449,12.066 -8.738,8.602 -14.567,13.734 -17.477,15.398 14.008,6.243 28.434,1.665 43.141,-13.73 0,-5.41 -2.359,-9.988 -7.215,-13.734"
         style="fill:#ffffff;fill-opacity:1;fill-rule:evenodd;stroke:none"
         id="path66"
         inkscape:connector-curvature="0" /><path
         d="m 455.598,171.969 c -6.797,5.133 -13.039,8.601 -18.446,10.402 12.481,6.938 25.52,5.41 39.254,-4.574 2.914,-1.945 8.602,-6.66 16.922,-14.149 6.938,-6.242 12.485,-10.543 16.785,-13.039 -10.543,-5.687 -22.886,-3.191 -36.898,7.352 l -17.617,14.008"
         style="fill:#ffffff;fill-opacity:1;fill-rule:evenodd;stroke:none"
         id="path68"
         inkscape:connector-curvature="0" /><path
         d="m 457.68,300.277 11.793,4.301 c 5.406,0.973 9.707,0.418 13.175,-1.941 8.184,-3.606 13.735,-10.957 16.368,-22.055 l 2.636,-14.148 c 1.11,-5.688 2.36,-10.125 3.746,-13.457 -9.57,1.945 -18.035,9.156 -25.523,21.503 l -9.293,14.426 c -3.887,4.992 -8.187,8.739 -12.902,11.371"
         style="fill:#ffffff;fill-opacity:1;fill-rule:evenodd;stroke:none"
         id="path70"
         inkscape:connector-curvature="0" /><path
         d="m 462.813,207.48 c -12.485,12.762 -18.032,29.27 -16.645,49.661 7.352,-4.578 14.98,-12.903 22.887,-24.969 8.183,-12.902 15.121,-21.641 20.808,-25.942 -4.855,-4.437 -13.871,-4.023 -27.05,1.25"
         style="fill:#ffffff;fill-opacity:1;fill-rule:evenodd;stroke:none"
         id="path72"
         inkscape:connector-curvature="0" /><path
         d="m 462.395,84.578 c -7.907,4.024 -13.872,10.129 -18.032,18.172 -3.05,2.359 -4.855,6.383 -5.269,12.348 -0.555,6.242 -1.942,10.543 -4.301,12.898 1.523,3.469 3.746,4.719 6.656,3.746 l 7.074,-3.746 17.063,-24.273 c 6.797,-9.571 13.316,-16.645 19.422,-21.223 -6.797,-3.191 -14.289,-2.496 -22.613,2.078"
         style="fill:#ffffff;fill-opacity:1;fill-rule:evenodd;stroke:none"
         id="path74"
         inkscape:connector-curvature="0" /><path
         d="m 478.488,261.996 c -9.574,-0.695 -19.836,3.328 -30.797,12.067 l -13.316,10.542 c -4.992,4.301 -9.293,7.352 -12.762,9.153 4.578,3.191 9.711,4.855 15.121,4.855 l 16.508,-2.496 c 5.965,-3.191 11.098,-8.183 15.535,-15.258 l 9.711,-18.863"
         style="fill:#ffffff;fill-opacity:1;fill-rule:evenodd;stroke:none"
         id="path76"
         inkscape:connector-curvature="0" /><path
         d="M 446.168,145.891 400.809,171 c 15.949,6.934 28.019,8.32 36.343,4.297 4.438,-2.219 10.817,-6.797 19.282,-13.594 8.183,-6.797 14.839,-11.234 19.695,-13.453 -2.359,-3.328 -6.938,-4.996 -13.734,-4.996 -5.27,0 -10.68,0.836 -16.227,2.637"
         style="fill:#ffffff;fill-opacity:1;fill-rule:evenodd;stroke:none"
         id="path78"
         inkscape:connector-curvature="0" /><path
         d="m 412.184,282.246 -4.301,4.715 c 6.519,0.418 14.426,-2.773 23.859,-9.848 11.789,-8.738 19.696,-13.73 23.856,-15.117 -3.883,-1.668 -7.629,-1.391 -11.235,0.692 l -9.293,8.183 c -4.023,4.301 -7.351,7.215 -9.988,8.738 -4.023,2.637 -8.324,3.469 -12.898,2.637"
         style="fill:#ffffff;fill-opacity:1;fill-rule:evenodd;stroke:none"
         id="path80"
         inkscape:connector-curvature="0" /><path
         d="m 423.559,234.527 -6.661,38.703 c 11.512,-2.359 19.004,-10.679 22.473,-24.968 l 3.883,-18.309 c 1.805,-6.797 4.301,-12.07 7.629,-15.816 -4.301,-3.188 -9.57,-1.942 -15.813,3.886 -4.855,4.715 -8.738,10.262 -11.511,16.504"
         style="fill:#ffffff;fill-opacity:1;fill-rule:evenodd;stroke:none"
         id="path82"
         inkscape:connector-curvature="0" /><path
         d="m 419.258,100.395 c -3.746,6.242 -5.41,11.789 -4.719,16.781 0.555,5.965 4.301,10.265 11.375,12.625 2.359,-2.082 4.164,-6.66 5.688,-13.735 1.386,-7.628 3.191,-12.761 5.55,-15.671 L 450.883,82.5 c -14.149,-1.387 -24.692,4.578 -31.625,17.895"
         style="fill:#ffffff;fill-opacity:1;fill-rule:evenodd;stroke:none"
         id="path84"
         inkscape:connector-curvature="0" /><path
         d="m 406.496,139.234 -35.094,13.317 c 8.598,12.066 20.114,14.562 34.539,7.765 2.911,-1.386 9.016,-4.855 18.309,-10.402 7.629,-4.578 13.457,-7.492 17.754,-8.738 -9.707,-5.551 -21.5,-6.242 -35.508,-1.942"
         style="fill:#ffffff;fill-opacity:1;fill-rule:evenodd;stroke:none"
         id="path86"
         inkscape:connector-curvature="0" /><path
         d="m 419.258,232.172 c -10.684,3.469 -19.004,11.652 -24.969,24.551 l -11.516,34.679 c 12.485,-0.972 21.227,-8.601 26.079,-22.609 l 4.996,-18.727 c 1.8,-8.046 3.605,-14.011 5.41,-17.894"
         style="fill:#ffffff;fill-opacity:1;fill-rule:evenodd;stroke:none"
         id="path88"
         inkscape:connector-curvature="0" /><path
         d="m 339.637,134.516 c 8.183,10.543 20.25,13.593 36.062,9.297 4.164,-1.25 10.821,-3.747 19.836,-7.356 8.465,-3.465 14.844,-5.684 19.004,-6.656 -8.738,-9.434 -20.945,-12.344 -36.758,-8.602 l -19.558,6.797 -18.586,6.52"
         style="fill:#ffffff;fill-opacity:1;fill-rule:evenodd;stroke:none"
         id="path90"
         inkscape:connector-curvature="0" /><path
         d="m 402.75,105.109 c -3.191,3.051 -4.578,6.106 -3.883,9.016 3.465,3.332 6.379,2.219 9.016,-3.469 2.078,-4.851 2.773,-9.152 2.355,-12.621 l -7.488,7.074"
         style="fill:#ffffff;fill-opacity:1;fill-rule:evenodd;stroke:none"
         id="path92"
         inkscape:connector-curvature="0" /><path
         d="m 346.434,309.711 c 1.941,1.527 5.129,0.832 9.57,-1.801 l 10.68,-7.633 c 6.519,-4.851 11.238,-13.316 14.425,-25.105 3.469,-13.594 7.075,-22.609 10.684,-26.91 -12.07,1.527 -21.641,9.57 -28.715,24.136 l -7.769,19.282 c -3.188,7.906 -6.102,14.008 -8.875,18.031"
         style="fill:#ffffff;fill-opacity:1;fill-rule:evenodd;stroke:none"
         id="path94"
         inkscape:connector-curvature="0" /><path
         d="m 382.773,111.77 c -8.738,-9.852 -22.332,-12.071 -40.781,-6.661 -4.301,1.25 -9.293,4.438 -15.117,9.571 -6.937,5.687 -11.793,9.433 -14.707,10.961 9.574,5.269 21.363,5.269 35.375,0.136 l 17.754,-7.488 c 7.215,-3.191 13.039,-5.273 17.476,-6.519"
         style="fill:#ffffff;fill-opacity:1;fill-rule:evenodd;stroke:none"
         id="path96"
         inkscape:connector-curvature="0" /><path
         d="m 369.043,163.785 -9.016,9.57 18.032,-4.714 c -2.914,-4.438 -5.825,-6.106 -9.016,-4.856"
         style="fill:#ffffff;fill-opacity:1;fill-rule:evenodd;stroke:none"
         id="path98"
         inkscape:connector-curvature="0" /><path
         d="m 330.617,257.141 c 0.973,2.91 4.024,5.269 9.02,7.211 3.742,-3.469 9.707,-6.657 18.031,-9.571 8.879,-2.636 14.98,-5.547 18.449,-8.879 -6.105,-2.355 -13.734,-1.941 -22.887,1.25 l -22.613,9.989"
         style="fill:#ffffff;fill-opacity:1;fill-rule:evenodd;stroke:none"
         id="path100"
         inkscape:connector-curvature="0" /><path
         d="m 334.918,227.73 -36.344,18.172 c 9.02,8.047 20.531,9.02 34.68,2.914 l 17.617,-7.906 c 6.797,-2.914 12.899,-4.16 18.172,-4.023 -3.469,-4.578 -8.602,-7.629 -15.398,-9.293 -6.797,-1.664 -13.04,-1.664 -18.727,0.136"
         style="fill:#ffffff;fill-opacity:1;fill-rule:evenodd;stroke:none"
         id="path102"
         inkscape:connector-curvature="0" /><path
         d="m 305.648,317.48 c 5.965,2.637 13.18,1.801 21.918,-2.359 8.739,-4.023 14.981,-9.57 18.868,-16.644 l 15.949,-36.481 c -10.957,-0.555 -21.223,6.797 -30.516,22.192 l -11.512,18.726 c -4.718,6.797 -9.574,11.652 -14.707,14.566"
         style="fill:#ffffff;fill-opacity:1;fill-rule:evenodd;stroke:none"
         id="path104"
         inkscape:connector-curvature="0" /><path
         d="m 351.148,150.609 c -5.687,0.692 -10.957,4.575 -15.953,11.649 l -11.652,17.758 c 5.828,2.078 12.625,1.109 20.391,-2.637 7.074,-3.469 13.316,-8.602 18.449,-15.399 0.695,-3.187 -0.555,-5.824 -3.606,-7.906 l -7.629,-3.465"
         style="fill:#ffffff;fill-opacity:1;fill-rule:evenodd;stroke:none"
         id="path106"
         inkscape:connector-curvature="0" /><path
         d="m 314.527,89.02 c -5.687,2.359 -10.543,7.351 -14.839,14.703 -5.133,8.879 -9.297,14.566 -12.485,17.199 10.125,3.191 20.945,0.277 32.32,-8.598 l 13.454,-10.683 c 5.41,-3.465 10.679,-5.547 15.812,-5.965 -3.187,-4.297 -8.32,-6.934 -15.258,-8.184 -6.656,-1.246 -13.039,-0.691 -19.004,1.528"
         style="fill:#ffffff;fill-opacity:1;fill-rule:evenodd;stroke:none"
         id="path108"
         inkscape:connector-curvature="0" /><path
         d="m 305.648,214.137 c -14.562,6.242 -27.464,14.707 -38.976,25.109 11.098,4.992 23.305,4.024 36.758,-3.051 l 16.371,-9.019 c 6.656,-3.465 12.484,-5.688 17.476,-6.52 -3.191,-3.883 -7.769,-6.519 -14.011,-7.906 -6.657,-1.523 -12.485,-1.109 -17.618,1.387"
         style="fill:#ffffff;fill-opacity:1;fill-rule:evenodd;stroke:none"
         id="path110"
         inkscape:connector-curvature="0" /><path
         d="m 308.008,157.684 -20.805,24.687 c 3.883,6.52 13.039,5.688 27.324,-2.355 10.68,-12.762 18.172,-24.969 22.75,-36.481 l -4.714,-4.301 c -8.188,2.496 -16.372,8.598 -24.555,18.45"
         style="fill:#ffffff;fill-opacity:1;fill-rule:evenodd;stroke:none"
         id="path112"
         inkscape:connector-curvature="0" /><path
         d="m 296.633,316.371 c 8.324,-3.191 15.398,-9.574 21.086,-19.422 l 12.898,-26.078 c -10.679,-0.969 -21.637,4.578 -32.875,16.649 l -13.73,14.703 c -5.41,5.132 -10.543,8.738 -15.399,10.816 l 13.871,4.441 c 5.274,1.387 9.989,0.969 14.149,-1.109"
         style="fill:#ffffff;fill-opacity:1;fill-rule:evenodd;stroke:none"
         id="path114"
         inkscape:connector-curvature="0" /><path
         d="m 285.121,82.5 c -6.66,5.27 -11.652,12.207 -14.98,20.805 -2.36,5.828 -4.301,14.011 -5.828,24.691 5.964,-0.969 11.097,-3.605 15.257,-7.629 2.637,-2.773 5.688,-7.211 9.157,-13.316 3.746,-6.52 6.796,-11.098 9.015,-13.731 4.024,-4.578 8.879,-7.492 14.426,-9.019 l -13.453,-3.328 c -5.41,-1.387 -9.848,-0.832 -13.594,1.527"
         style="fill:#ffffff;fill-opacity:1;fill-rule:evenodd;stroke:none"
         id="path116"
         inkscape:connector-curvature="0" /><path
         d="m 297.465,158.93 12.348,-15.395 c -9.989,-1.945 -20.946,1.942 -32.875,11.789 -7.352,5.824 -16.786,15.676 -28.161,29.406 12.762,5.551 24.692,2.497 35.789,-9.292 2.914,-3.192 7.211,-8.602 12.899,-16.508"
         style="fill:#ffffff;fill-opacity:1;fill-rule:evenodd;stroke:none"
         id="path118"
         inkscape:connector-curvature="0" /><path
         d="m 252.246,239.246 c 4.715,-1.941 10.402,-5.551 16.922,-10.68 l 15.953,-13.179 c 6.379,-4.578 12.484,-7.215 18.172,-7.907 -24,-7.214 -47.578,3.329 -70.605,31.766 6.519,2.359 13.039,2.359 19.558,0"
         style="fill:#ffffff;fill-opacity:1;fill-rule:evenodd;stroke:none"
         id="path120"
         inkscape:connector-curvature="0" /><path
         d="m 245.449,306.383 21.223,0.972 c 16.922,-12.761 27.605,-24.136 31.902,-34.125 -9.015,0.555 -20.804,4.161 -35.371,10.958 -15.117,6.937 -26.769,10.96 -34.816,11.929 4.023,5.41 9.711,8.879 17.062,10.266"
         style="fill:#ffffff;fill-opacity:1;fill-rule:evenodd;stroke:none"
         id="path122"
         inkscape:connector-curvature="0" /><path
         d="m 203.281,261.996 c 5.688,15.395 12.485,23.719 20.391,24.965 8.461,1.805 17.754,0.277 27.742,-4.438 l 12.066,-6.378 c 4.719,-2.36 8.739,-4.165 12.208,-5.274 -6.52,-3.328 -18.309,-4.855 -35.512,-4.437 -17.477,0.277 -29.821,-1.25 -36.895,-4.438"
         style="fill:#ffffff;fill-opacity:1;fill-rule:evenodd;stroke:none"
         id="path124"
         inkscape:connector-curvature="0" /><path
         d="m 212.297,186.672 c 11.789,5.133 23.305,1.805 34.398,-9.984 l 13.875,-16.372 c 5.684,-6.656 10.817,-11.511 15.118,-14.425 -12.762,-0.414 -25.106,3.468 -36.899,11.652 -10.539,7.215 -19.418,16.922 -26.492,29.129"
         style="fill:#ffffff;fill-opacity:1;fill-rule:evenodd;stroke:none"
         id="path126"
         inkscape:connector-curvature="0" /><path
         d="m 271.527,82.5 c -16.922,2.773 -26.91,10.957 -29.824,24.551 l 0,17.48 c -0.137,7.074 0.555,12.621 2.36,16.645 8.183,-3.746 13.73,-12.207 16.367,-25.246 l 3.191,-15.535 c 1.801,-5.688 4.438,-10.266 7.906,-13.735 l 0,-4.16"
         style="fill:#ffffff;fill-opacity:1;fill-rule:evenodd;stroke:none"
         id="path128"
         inkscape:connector-curvature="0" /><path
         d="m 247.113,216.219 c 6.52,-5.547 12.207,-9.293 17.2,-11.098 -11.93,-2.078 -24.415,0.418 -37.313,7.77 -12.066,6.519 -22.887,16.089 -32.738,28.714 11.097,4.438 23.304,0.833 36.484,-10.683 l 16.367,-14.703"
         style="fill:#ffffff;fill-opacity:1;fill-rule:evenodd;stroke:none"
         id="path130"
         inkscape:connector-curvature="0" /><path
         d="m 214.656,248.262 c -1.39,1.804 -3.886,2.496 -7.633,2.359 l -8.46,0 c 4.855,6.102 13.316,9.293 25.109,9.43 l 29.406,-2.91 c -7.351,-11.375 -20.113,-14.289 -38.422,-8.879"
         style="fill:#ffffff;fill-opacity:1;fill-rule:evenodd;stroke:none"
         id="path132"
         inkscape:connector-curvature="0" /><path
         d="m 204.391,160.316 -16.508,13.735 c -6.52,5.687 -12.067,9.847 -16.367,12.621 2.632,4.023 7.074,5.41 13.316,4.023 l 16.09,-4.023 c 5.41,-2.91 11.789,-9.293 19.141,-19.418 6.937,-9.57 13.457,-15.953 19.699,-19.004 -10.403,-2.082 -22.196,1.941 -35.371,12.066"
         style="fill:#ffffff;fill-opacity:1;fill-rule:evenodd;stroke:none"
         id="path134"
         inkscape:connector-curvature="0" /><path
         d="m 227.414,99.563 c -4.851,3.742 -8.32,7.765 -10.402,12.207 -4.715,15.117 -4.16,25.8 1.804,31.765 7.211,0.414 11.93,-1.113 14.286,-4.719 1.945,-2.636 2.777,-7.211 2.636,-13.453 l -0.691,-16.371 c 0.277,-5.965 1.801,-10.402 4.715,-13.316 -3.051,-1.387 -7.215,-0.137 -12.348,3.887"
         style="fill:#ffffff;fill-opacity:1;fill-rule:evenodd;stroke:none"
         id="path136"
         inkscape:connector-curvature="0" /><path
         d="m 213.82,197.77 13.18,1.804 -5.965,-3.886 -7.215,2.082"
         style="fill:#ffffff;fill-opacity:1;fill-rule:evenodd;stroke:none"
         id="path138"
         inkscape:connector-curvature="0" /><path
         d="m 192.598,233.559 14.425,-13.317 c 6.243,-5.965 10.961,-10.265 14.29,-12.762 -15.536,-3.746 -37.731,8.602 -66.723,37.176 13.457,2.078 26.078,-1.664 38.008,-11.097"
         style="fill:#ffffff;fill-opacity:1;fill-rule:evenodd;stroke:none"
         id="path140"
         inkscape:connector-curvature="0" /><path
         d="m 207.578,116.484 c -5.547,7.075 -8.598,14.704 -9.015,22.75 l 11.375,0 c -1.801,-2.359 -2.497,-6.105 -2.36,-10.961 l 0,-11.789"
         style="fill:#ffffff;fill-opacity:1;fill-rule:evenodd;stroke:none"
         id="path142"
         inkscape:connector-curvature="0" /><path
         d="m 176.508,175.438 31.07,-27.188 c -11.371,-3.605 -23.164,-0.418 -35.371,9.434 l -15.117,13.73 c -6.242,6.242 -11.375,10.68 -15.399,13.316 10.68,3.192 22.332,0.141 34.817,-9.292"
         style="fill:#ffffff;fill-opacity:1;fill-rule:evenodd;stroke:none"
         id="path144"
         inkscape:connector-curvature="0" /><path
         d="m 189.547,198.047 c -0.414,2.637 1.805,3.746 6.66,3.328 4.852,-0.555 8.043,-2.355 9.43,-5.27 -1.801,-1.941 -4.578,-2.496 -8.043,-1.527 l -8.047,3.469"
         style="fill:#ffffff;fill-opacity:1;fill-rule:evenodd;stroke:none"
         id="path146"
         inkscape:connector-curvature="0" /><path
         d="m 164.441,209.285 c -7.351,2.633 -15.816,7.766 -25.386,15.535 l -22.332,18.727 c 3.191,4.019 7.629,5.41 13.457,3.883 l 7.074,-2.637 6.797,-1.246 40.781,-34.262 c -0.973,-3.469 -3.887,-4.441 -8.602,-3.191 l -11.789,3.191"
         style="fill:#ffffff;fill-opacity:1;fill-rule:evenodd;stroke:none"
         id="path148"
         inkscape:connector-curvature="0" /><path
         d="m 126.156,163.785 -19.422,21.918 c 12.485,1.801 24.692,-1.805 36.621,-10.82 3.747,-2.774 8.739,-7.215 15.258,-13.18 l 14.844,-13.453 c -13.039,-6.797 -28.852,-1.664 -47.301,15.535"
         style="fill:#ffffff;fill-opacity:1;fill-rule:evenodd;stroke:none"
         id="path150"
         inkscape:connector-curvature="0" /><path
         d="m 114.641,234.527 34.261,-25.242 -18.308,-0.418 -18.309,7.629 c -2.496,2.496 -2.914,5.41 -1.387,8.879 l 3.743,9.152"
         style="fill:#ffffff;fill-opacity:1;fill-rule:evenodd;stroke:none"
         id="path152"
         inkscape:connector-curvature="0" /><path
         d="m 101.188,155.879 -16.09,14.703 c -6.52,6.52 -11.793,11.234 -15.817,14.148 12.207,4.856 24.832,1.25 37.731,-10.679 l 15.535,-15.535 c 6.242,-6.106 11.93,-10.266 16.785,-12.625 -12.344,-4.024 -24.969,-0.692 -38.144,9.988"
         style="fill:#ffffff;fill-opacity:1;fill-rule:evenodd;stroke:none"
         id="path154"
         inkscape:connector-curvature="0" /><path
         d="m 105.211,211.641 c -1.527,1.527 -2.223,3.605 -2.082,6.382 l 0.277,3.188 0.973,-2.633 c 1.387,-2.637 1.664,-4.996 0.832,-6.937"
         style="fill:#ffffff;fill-opacity:1;fill-rule:evenodd;stroke:none"
         id="path156"
         inkscape:connector-curvature="0" /><path
         d="m 96.191,217.746 0.278,13.453 c 0.558,5.41 2.914,8.879 6.937,10.406 -2.496,-3.191 -4.437,-8.187 -5.965,-15.261 l -1.25,-8.598"
         style="fill:#ffffff;fill-opacity:1;fill-rule:evenodd;stroke:none"
         id="path158"
         inkscape:connector-curvature="0" /><path
         d="m 82.598,234.527 -6.934,7.215 c -3.328,3.469 -6.242,5.688 -8.738,6.52 1.246,3.883 4.301,5.133 9.015,3.883 l 11.375,-3.883 c 0.278,-3.051 -1.25,-7.629 -4.718,-13.735"
         style="fill:#ffffff;fill-opacity:1;fill-rule:evenodd;stroke:none"
         id="path160"
         inkscape:connector-curvature="0" /><path
         d="m 82.598,214.137 c -4.02,-0.137 -8.461,1.527 -13.317,5.133 l -11.371,8.46 c -0.418,5.274 1.801,9.852 6.656,13.875 12.762,-7.769 18.727,-16.925 18.032,-27.468"
         style="fill:#ffffff;fill-opacity:1;fill-rule:evenodd;stroke:none"
         id="path162"
         inkscape:connector-curvature="0" /><path
         d="m 88.285,156.988 c 4.996,-5.269 10.406,-9.156 16.094,-11.789 -15.676,-2.5 -27.883,1.387 -36.762,11.512 L 57.492,171 c -4.023,5.965 -7.492,10.402 -10.402,13.039 6.519,1.246 12.207,0.555 17.062,-2.082 3.743,-2.082 7.766,-5.828 12.344,-10.957 l 11.789,-14.012"
         style="fill:#ffffff;fill-opacity:1;fill-rule:evenodd;stroke:none"
         id="path164"
         inkscape:connector-curvature="0" /><path
         d="m 43.898,176.41 c 3.329,-2.359 7.493,-7.633 12.622,-15.816 4.578,-7.352 9.574,-12.485 15.261,-15.395 -13.457,-1.804 -20.949,0.278 -22.336,5.965 -3.05,4.715 -4.851,13.176 -5.547,25.246"
         style="fill:#ffffff;fill-opacity:1;fill-rule:evenodd;stroke:none"
         id="path166"
         inkscape:connector-curvature="0" /><path
         d="m 729.004,149.914 -25.387,27.465 c 4.578,1.805 11.516,2.496 20.531,2.219 8.602,-0.414 15.122,-1.387 19.7,-2.91 2.496,-0.836 4.437,-5.551 5.683,-14.012 l 3.61,-22.196 c -9.575,0.141 -17.618,3.192 -24.137,9.434"
         style="fill:#ffffff;fill-opacity:1;fill-rule:evenodd;stroke:none"
         id="path168"
         inkscape:connector-curvature="0" /></g></g></svg>